<svg width="106" height="45" viewBox="0 0 106 45" fill="none" xmlns="http://www.w3.org/2000/svg">
    <path 
        d="M4 21.5C5.80874 18 10.3137 13.2222 13.0636 11.5C15.8135 9.77778 6.63676 34.8333 11.9306 34.8333C17.2245 
        34.8333 22.3962 4 27.6901 4C32.984 4 19.6657 41 24.9595 41C30.2534 41 36.289 4 42.5202 4C48.7514 4 37.9884 
        36.5 37.9884 36.5M54.4162 5.5C54.4162 5.5 43.4576 41 48.7514 41C54.0453 41 58.1859 16 63.4798 16C68.7736 16 
        64.0462 30.5 69.711 26C75.3757 21.5 85.5723 21.5 85.5723 21.5H102" 
        stroke="#334155" 
        stroke-width="7" 
        stroke-linecap="round" stroke-linejoin="round"
    />
</svg>
