<svg width="82" height="75" viewBox="0 0 82 75" fill="none" xmlns="http://www.w3.org/2000/svg">
<g filter="url(#filter0_b_11_2)">
<path d="M11.0725 58.4205C10.2324 54.6856 10.4874 48.5471 11.3546 45.7591C12.2219 42.9711 20.8331 67.7811 24.4782 65.0764C28.1234 62.3718 13.3117 34.9679 16.9569 32.2633C20.602 29.5586 33.4788 66.0769 37.124 63.3722C40.7691 60.6676 22.8777 27.87 27.1683 24.6865C31.4589 21.5029 43.4138 53.1019 43.4138 53.1019M36.2532 19.8134C36.2532 19.8134 49.861 53.9215 53.5062 51.2169C57.1514 48.5122 45.1056 26.3198 48.7507 23.6151C52.3959 20.9105 57.781 34.9704 59.0001 28.4624C60.2192 21.9544 67.2401 16.745 67.2401 16.745L69.9446 14.7383" stroke="#FCFABC" stroke-width="6" stroke-linecap="round" stroke-linejoin="round"/>
</g>
<defs>
<filter id="filter0_b_11_2" x="-239.355" y="-239.316" width="560.919" height="553.396" filterUnits="userSpaceOnUse" color-interpolation-filters="sRGB">
<feFlood flood-opacity="0" result="BackgroundImageFix"/>
<feGaussianBlur in="BackgroundImageFix" stdDeviation="120"/>
<feComposite in2="SourceAlpha" operator="in" result="effect1_backgroundBlur_11_2"/>
<feBlend mode="normal" in="SourceGraphic" in2="effect1_backgroundBlur_11_2" result="shape"/>
</filter>
</defs>
</svg>
